# AST/ASF file generated using VICON BodyLanguage
# -----------------------------------------------
:version 1.10
:name VICON
:units
  mass 1.0
  length 0.45
  angle deg
:documentation
   .ast/.asf automatically generated from VICON data using
   VICON BodyBuilder and BodyLanguage model FoxedUp or BRILLIANT.MOD
:root
   order TX TY TZ RX RY RZ
   axis XYZ
   position 0 0 0  
   orientation 0 0 0 
:bonedata
  begin
     id 1 
     name lhipjoint
     direction 0.635376 -0.686425 0.353719 
     length 2.47244 
     axis 0 0 0  XYZ
  end
  begin
     id 2 
     name lfemur
     direction 0.34202 -0.939693 0  
     length 7.25268  
     axis 0 0 20  XYZ
    dof rx ry rz
    limits (-160.0 20.0)
           (-70.0 70.0)
           (-60.0 70.0)
  end
  begin
     id 3 
     name ltibia
     direction 0.34202 -0.939693 0   
     length 7.6767   
     axis 0 0 20   XYZ
    dof rx
    limits (-10.0 170.0)
  end
  begin
     id 4 
     name lfoot
     direction 0.0803374 -0.220725 0.972022   
     length 2.22945   
     axis -90 7.62852e-016 20   XYZ
    dof rx rz
    limits (-45.0 90.0)
           (-70.0 20.0)
  end
  begin
     id 5 
     name ltoes
     direction 1.53579e-011 -4.21994e-011 1   
     length 1.11848   
     axis -90 7.62852e-016 20   XYZ
    dof rx
    limits (-90.0 20.0)
  end
  begin
     id 6 
     name rhipjoint
     direction -0.664428 -0.664335 0.342336   
     length 2.55466  
     axis 0 0 0  XYZ 
  end
  begin
     id 7 
     name rfemur
     direction -0.34202 -0.939693 0   
     length 6.83172   
     axis 0 0 -20   XYZ
    dof rx ry rz
    limits (-160.0 20.0)
           (-70.0 70.0)
           (-70.0 60.0)
  end
  begin
     id 8 
     name rtibia
     direction -0.34202 -0.939693 0   
     length 7.62692   
     axis 0 0 -20   XYZ
    dof rx
    limits (-10.0 170.0)
 end
 begin
     id 9 
     name rfoot
     direction -0.0949276 -0.260811 0.960711   
     length 2.19684  
     axis -90 -7.62852e-016 -20   XYZ
    dof rx rz
    limits (-45.0 90.0)
           (-20.0 70.0)
  end
  begin
     id 10 
     name rtoes
     direction -1.53543e-011 -4.2183e-011 1   
     length 1.09848   
     axis -90 -7.62852e-016 -20   XYZ
    dof rx
    limits (-90.0 20.0)
  end
  begin
     id 11 
     name lowerback
     direction 0.0118782 0.999815 -0.0151555   
     length 2.15772   
     axis 0 0 0   XYZ
    dof rx ry rz
    limits (-20.0 45.0)
           (-30.0 30.0)
           (-30.0 30.0)
  end
  begin
     id 12 
     name upperback
     direction 0.00130825 0.999065 0.0432113   
     length 2.14863   
     axis 0 0 0   XYZ
    dof rx ry rz
    limits (-20.0 45.0)
           (-30.0 30.0)
           (-30.0 30.0)
  end
  begin
     id 13 
     name thorax
     direction -0.00347005 0.998773 0.0494011   
     length 2.14936   
     axis 0 0 0   XYZ
    dof rx ry rz
    limits (-20.0 45.0)
           (-30.0 30.0)
           (-30.0 30.0)
  end
  begin
     id 14 
     name lowerneck
     direction -0.0262159 0.99424 0.103921   
     length 1.69373   
     axis 0 0 0   XYZ
    dof rx ry rz
    limits (-20.0 45.0)
           (-30.0 30.0)
           (-30.0 30.0)
  end
  begin
     id 15 
     name upperneck
     direction 0.0353511 0.977394 -0.20845   
     length 1.70857   
     axis 0 0 0   XYZ
    dof rx ry rz
    limits (-20.0 45.0)
           (-30.0 30.0)
           (-30.0 30.0)
  end
  begin
     id 16
     name head
     direction 0.0139214 0.996594 -0.0812836  
     length 1.72777  
     axis 0 0 0   XYZ
    dof rx ry rz
    limits (-20.0 45.0)
           (-30.0 30.0)
           (-30.0 30.0)
  end
  begin
     id 17 
     name lclavicle
     direction 0.841247 0.537205 -0.0609508  
     length 3.55371  
     axis 0 0 0   XYZ
    dof ry rz
    limits (-20.0 10.0)
           (0.0 20.0)
  end
  begin
     id 18 
     name lhumerus
     direction 1 -4.48964e-011 1.60116e-018   
     length 4.91377   
     axis -180 -30 -90   XYZ
    dof rx ry rz
    limits (-60.0 90.0)
           (-90.0 90.0)
           (-90.0 90.0)
  end
  begin
     id 19
     name lradius
     direction 1 -4.48989e-011 -8.93847e-027   
     length 3.00291   
     axis -180 -30 -90   XYZ
    dof rx
    limits (-10.0 170.0)
  end
  begin
     id 20
     name lwrist
     direction 1 -4.48932e-011 -7.31504e-027   
     length 1.50145   
     axis 5.74121e-015 90 90   XYZ
    dof ry
    limits (-180.0 0.0)
 end
  begin
     id 21 
     name lhand
     direction 1 -4.48971e-011 -1.46301e-026   
     length 0.450922   
     axis 9.33524e-015 90 90   XYZ
    dof rx rz
    limits (-90.0 90.0)
           (-45.0 45.0)
  end
  begin
     id 22 
     name lfingers
     direction 1 -4.49039e-011 -2.92602e-026   
     length 0.363545   
     axis 1.86705e-014 90 90   XYZ
    dof rx
    limits (0.0 90.0)
  end
  begin
     id 23
     name lthumb
     direction 0.707107 -6.34941e-011 0.707107   
     length 0.52198   
     axis -90 45 2.85299e-015   XYZ
    dof rx rz
    limits (-45.0 45.0)
           (-45.0 45.0)
  end
  begin
     id 24 
     name rclavicle
     direction -0.825079 0.56158 -0.0622297   
     length 3.39909  
     axis 0 0 0   XYZ 
    dof ry rz
    limits (-10.0 20.0)
           (-20.0 0.0)
  end
  begin
     id 25 
     name rhumerus
     direction -1 -4.48965e-011 1.61691e-027  
     length 4.86725   
     axis -180 30 90   XYZ
    dof rx ry rz
    limits (-90.0 60.0)
           (-90.0 90.0)
           (-90.0 90.0)
  end
  begin
     id 26 
     name rradius
     direction -1 -4.48964e-011 -2.25776e-027   
     length 3.17144   
     axis -180 30 90   XYZ
    dof rx
    limits (-10.0 170.0)
  end
  begin
     id 27 
     name rwrist
     direction -1 -4.48961e-011 -7.31504e-027   
     length 1.58572   
     axis 5.74121e-015 -90 -90   XYZ
    dof ry
    limits (-180.0 0.0)
  end
  begin
     id 28
     name rhand
     direction -1 -4.49013e-011 -1.46301e-026   
     length 0.419368   
     axis 9.33524e-015 -90 -90   XYZ
    dof rx rz
    limits (-90.0 90.0)
           (-45.0 45.0)
  end
  begin
     id 29
     name rfingers
     direction -1 -4.489e-011 -2.92602e-026   
     length 0.338105   
     axis 1.86705e-014 -90 -90   XYZ
    dof rx
    limits (0.0 90.0)
  end
  begin
     id 30
     name rthumb
     direction -0.707107 -6.35022e-011 0.707107   
     length 0.485453   
     axis -90 -45 -2.85299e-015   XYZ
    dof rx rz
    limits (-45.0 45.0)
           (-45.0 45.0)
  end
:hierarchy
  begin
    root lhipjoint rhipjoint lowerback
    lhipjoint lfemur
    lfemur ltibia
    ltibia lfoot
    lfoot ltoes
    rhipjoint rfemur
    rfemur rtibia
    rtibia rfoot
    rfoot rtoes
    lowerback upperback
    upperback thorax
    thorax lowerneck lclavicle rclavicle
    lowerneck upperneck
    upperneck head
    lclavicle lhumerus
    lhumerus lradius
    lradius lwrist
    lwrist lhand lthumb
    lhand lfingers
    rclavicle rhumerus
    rhumerus rradius
    rradius rwrist
    rwrist rhand rthumb
    rhand rfingers
  end

#!OML:ASF H:\Swim 2\Project 1\Capture day 1\Session 1\male.ASF
:FULLY-SPECIFIED
:DEGREES
112
root -0.487524 14.4069 7.85957 106.891 -0.677579 2.85294
lowerback -19.7256 2.2071 -1.9681
upperback -3.27018 3.49961 -0.900983
thorax 7.42018 1.70149 1.04896
lowerneck -11.7771 -5.47533 -0.696603
upperneck 46.2192 -7.05741 -1.08299
head 20.0574 -2.67669 -1.65642
rclavicle 1.43125e-014 1.4064e-014
rhumerus 98.5664 -29.1174 -27.7659
rradius 30.6715
rwrist -7.89698
rhand -12.5364 -22.0014
rfingers 7.12502
rthumb 13.54 -51.5412
lclavicle 1.43125e-014 1.4064e-014
lhumerus 72.9982 26.7803 -20.3655
lradius 24.6183
lwrist -19.3261
lhand -53.7127 69.3508
lfingers 7.12502
lthumb -26.1483 -97.5702
rfemur -40.3191 -5.33349 23.764
rtibia 32.4022
rfoot 6.05994 -7.87331
rtoes 7.84981
lfemur -42.784 -9.9919 -14.466
ltibia 32.0111
lfoot -2.58969 -2.21047
ltoes -2.4361
113
root -0.476503 14.4085 7.84368 106.59 -0.660161 2.82416
lowerback -19.6903 2.20948 -1.92163
upperback -3.22182 3.48794 -0.855107
thorax 7.45382 1.69491 1.06875
lowerneck -11.7602 -5.40509 -0.63498
upperneck 46.2161 -6.98909 -1.06641
head 20.0479 -2.64213 -1.64667
rclavicle -3.97569e-014 7.57867e-015
rhumerus 98.0048 -29.056 -27.3181
rradius 31.053
rwrist -8.48376
rhand -12.5787 -22.1828
rfingers 7.12502
rthumb 13.4993 -51.7253
lclavicle -3.97569e-014 7.57867e-015
lhumerus 73.4005 26.5643 -19.9474
lradius 24.6786
lwrist -19.1224
lhand -54.3183 69.4587
lfingers 7.12502
lthumb -26.728 -97.5909
rfemur -40.3894 -6.13209 24.3158
rtibia 34.3244
rfoot 6.77324 -7.41128
rtoes 8.18041
lfemur -42.5897 -9.63295 -14.8085
ltibia 32.9561
lfoot -2.34477 -2.77813
ltoes -1.90471
114
root -0.46505 14.4109 7.82888 106.298 -0.640157 2.77769
lowerback -19.6573 2.21801 -1.88986
upperback -3.18439 3.48732 -0.804156
thorax 7.47531 1.69378 1.1049
lowerneck -11.7762 -5.36419 -0.54175
upperneck 46.2391 -6.94615 -1.11637
head 20.0591 -2.61761 -1.68225
rclavicle -7.95139e-015 3.47873e-016
rhumerus 97.4632 -29.0227 -26.8742
rradius 31.4667
rwrist -9.02513
rhand -12.6832 -22.341
rfingers 7.12502
rthumb 13.3986 -51.8901
lclavicle -7.95139e-015 3.47873e-016
lhumerus 73.6618 26.3629 -19.7397
lradius 24.7212
lwrist -18.8704
lhand -54.7904 69.6876
lfingers 7.12502
lthumb -27.1797 -97.75
rfemur -40.4344 -6.85842 24.8069
rtibia 36.2064
rfoot 7.55103 -6.9006
rtoes 8.48302
lfemur -42.3748 -9.27601 -15.1379
ltibia 33.9355
lfoot -2.15296 -3.21011
ltoes -1.50274
115
root -0.453275 14.4144 7.81536 106.028 -0.617137 2.71444
lowerback -19.6308 2.23103 -1.86336
upperback -3.15865 3.49391 -0.751986
thorax 7.487 1.69641 1.14714
lowerneck -11.8068 -5.32413 -0.445042
upperneck 46.2477 -6.89812 -1.18348
head 20.0629 -2.59295 -1.72604
rclavicle -2.22639e-014 1.34677e-014
rhumerus 96.9411 -29.0255 -26.4234
rradius 31.9063
rwrist -9.52913
rhand -12.8685 -22.4754
rfingers 7.12502
rthumb 13.22 -52.0362
lclavicle -2.22639e-014 1.34677e-014
lhumerus 73.7928 26.1914 -19.7007
lradius 24.7389
lwrist -18.6766
lhand -55.0728 70.0498
lfingers 7.12502
lthumb -27.4498 -98.0696
rfemur -40.4616 -7.50688 25.2394
rtibia 38.0241
rfoot 8.41554 -6.33918
rtoes 8.73838
lfemur -42.1543 -8.91589 -15.4535
ltibia 34.9423
lfoot -2.08628 -3.46784
ltoes -1.5855
116
root -0.441268 14.4191 7.80322 105.781 -0.585277 2.64246
lowerback -19.6086 2.24654 -1.82855
upperback -3.14233 3.50212 -0.699595
thorax 7.49116 1.7003 1.18525
lowerneck -11.8531 -5.28477 -0.344595
upperneck 46.2441 -6.84434 -1.26895
head 20.0611 -2.56795 -1.77869
rclavicle 2.8625e-014 3.31722e-015
rhumerus 96.4369 -29.0688 -25.9586
rradius 32.3666
rwrist -9.99045
rhand -13.1516 -22.5863
rfingers 7.12502
rthumb 12.947 -52.1646
lclavicle 2.8625e-014 3.31722e-015
lhumerus 73.8374 26.0684 -19.7285
lradius 24.725
lwrist -18.662
lhand -55.1351 70.5077
lfingers 7.12502
lthumb -27.5094 -98.5182
rfemur -40.4682 -8.08085 25.6236
rtibia 39.7573
rfoot 9.33953 -5.73427
rtoes 8.88113
lfemur -41.933 -8.54326 -15.7537
ltibia 35.9718
lfoot -2.05769 -3.62435
ltoes -1.6775
117
root -0.429088 14.4249 7.7921 105.563 -0.54974 2.56627
lowerback -19.5929 2.26173 -1.78454
upperback -3.13612 3.50831 -0.650707
thorax 7.48865 1.70371 1.2139
lowerneck -11.9097 -5.24257 -0.244304
upperneck 46.2263 -6.77977 -1.36878
head 20.0516 -2.54114 -1.83628
rclavicle 2.54444e-014 -1.18277e-014
rhumerus 95.9528 -29.1505 -25.4838
rradius 32.8411
rwrist -10.3876
rhand -13.5175 -22.6887
rfingers 7.12502
rthumb 12.5943 -52.2891
lclavicle 2.54444e-014 -1.18277e-014
lhumerus 73.8443 26.0043 -19.7196
lradius 24.6748
lwrist -18.935
lhand -54.964 71.0304
lfingers 7.12502
lthumb -27.3458 -99.0668
rfemur -40.4634 -8.58832 25.9613
rtibia 41.3958
rfoot 10.3268 -5.10982
rtoes 8.90285
lfemur -41.7195 -8.14855 -16.0478
ltibia 37.0174
lfoot -2.06522 -3.70558
ltoes -1.82916
